<svg width="52" height="52" viewBox="0 0 52 52" fill="none" xmlns="http://www.w3.org/2000/svg">
<g clip-path="url(#clip0_20_118)">
<path d="M49.4736 36.9568C49.2136 36.3328 48.9536 35.6547 48.6936 35.0827C48.2776 34.1445 47.4435 32.3765 47.4435 32.3765C43.8511 24.5678 39.9793 16.6682 35.9406 8.84867C35.5853 8.16183 34.9526 6.9225 34.5345 6.0905C34.0145 5.1545 33.4945 4.16433 32.6603 3.22833C30.9963 1.14617 28.6021 0 26.052 0C23.4498 0 21.1076 1.14617 19.3895 3.12217C18.6073 4.06033 18.0353 5.04833 17.5153 5.9865C17.0993 6.8185 16.1091 8.74467 16.1091 8.74467C12.1008 16.5533 8.19648 24.4638 4.60631 32.2725C4.60631 32.2725 3.77431 34.0947 3.35614 35.0307C3.09614 35.6027 2.83614 36.2288 2.57614 36.9048C1.90014 38.831 1.69214 40.6532 1.95214 42.5273C2.52414 46.4317 5.12631 49.7098 8.71864 51.168C10.0706 51.74 11.4768 52 12.935 52C13.351 52 13.871 51.948 14.2891 51.896C16.0073 51.688 17.7775 51.116 19.4935 50.1258C21.6276 48.9277 23.6578 47.2117 25.948 44.7135C28.2381 47.2117 30.3203 48.9298 32.4025 50.1258C34.1206 51.116 35.8908 51.688 37.6068 51.896C38.0228 51.948 38.5428 52 38.961 52C40.4191 52 41.8751 51.74 43.1773 51.1658C46.8216 49.7077 49.3718 46.3775 49.9438 42.5252C50.3598 40.7052 50.1518 38.883 49.4736 36.9568ZM26 39.663C23.1898 36.1227 21.3676 32.7925 20.7436 29.9802C20.4836 28.782 20.4316 27.742 20.5876 26.806C20.6916 25.974 21.0036 25.2438 21.4196 24.6198C22.4076 23.2137 24.0738 22.3297 26 22.3297C27.9261 22.3297 29.6443 23.1617 30.5803 24.6198C30.9963 25.2438 31.3083 25.974 31.4123 26.806C31.5683 27.742 31.5163 28.8362 31.2563 29.9802C30.6323 32.7405 28.8101 36.0728 26 39.663ZM46.7675 42.1092C46.4035 44.8153 44.5813 47.1575 42.0311 48.1997C40.781 48.7197 39.429 48.8757 38.0748 48.7197C36.7726 48.5637 35.4726 48.1477 34.1185 47.3655C32.2443 46.3255 30.3701 44.7113 28.184 42.3172C31.6203 38.1008 33.7025 34.2485 34.4825 30.8143C34.8465 29.2002 34.8985 27.742 34.7425 26.39C34.5345 25.0878 34.0665 23.8918 33.3363 22.8497C31.7243 20.5097 29.0181 19.1555 26 19.1555C22.9818 19.1555 20.2735 20.5617 18.6615 22.8518C17.9335 23.8918 17.4633 25.09 17.2553 26.3922C17.0473 27.7463 17.0993 29.2543 17.5153 30.8165C18.2953 34.2507 20.4295 38.155 23.8138 42.3713C21.6796 44.7655 19.7535 46.3797 17.8793 47.4197C16.5251 48.1997 15.2251 48.6178 13.923 48.7738C12.5168 48.9298 11.1648 48.7218 9.96664 48.2538C7.41648 47.2138 5.59431 44.8695 5.23031 42.1633C5.07431 40.8612 5.17831 39.5612 5.69831 38.103C5.85431 37.583 6.11431 37.063 6.37431 36.4368C6.73831 35.6048 7.62448 33.7307 7.62448 33.7307C11.2168 25.9762 15.067 18.0635 19.0753 10.3588C19.0753 10.3588 20.0633 8.43267 20.4815 7.65267C20.8975 6.8185 21.3655 6.0385 21.9396 5.3625C23.0338 4.1145 24.4898 3.43633 26.104 3.43633C27.7181 3.43633 29.1741 4.11233 30.2683 5.3625C30.8403 6.0385 31.3083 6.82067 31.7265 7.65267C32.1425 8.43267 32.7838 9.68067 33.1326 10.3588C37.0998 18.109 40.9413 26.026 44.5315 33.7827C44.5315 33.7827 45.3115 35.6048 45.7296 36.4368C45.9896 37.0608 46.2496 37.583 46.4056 38.103C46.8195 39.455 46.9755 40.7572 46.7675 42.1092Z" fill="#FDD84C"/>
</g>
<defs>
<clipPath id="clip0_20_118">
<rect width="52" height="52" fill="white"/>
</clipPath>
</defs>
</svg>
