<svg width="64" height="64" viewBox="0 0 64 64" fill="none" xmlns="http://www.w3.org/2000/svg">
<path d="M6.20002 41.9L13.9 44L12.5 47.5C12.3 47.9 12.4 48.2999 12.7 48.5999C12.9 48.7999 13.1 48.9 13.4 48.9C13.5 48.9 13.7 48.8999 13.8 48.7999L17.2 47.4L19.3 55C19.4 55.2999 19.7 55.6 20 55.7C20.1 55.7 20.2 55.7 20.3 55.7C20.6 55.7 20.8 55.6 21 55.4L23.5 52.9C23.7 52.7 23.8 52.5 23.8 52.2L23.7 44.7L24.6 44.2999C24.7 44.2 24.8 44.1999 24.9 44.0999L36.3 32.7L40.8 49C40.9 49.2999 41.2 49.6 41.5 49.7C41.6 49.7 41.7 49.7 41.8 49.7C42.1 49.7 42.3 49.6 42.5 49.4L45.6 46.2999C45.8 46.0999 45.9 45.7999 45.9 45.5999L45.8 41.4L48 39.2C48.4 38.8 48.4 38.1999 48 37.7999C47.6 37.4 47 37.4 46.6 37.7999L45.7 38.7L45.5 32.7L48.5 29.7C48.9 29.3 48.9 28.6999 48.5 28.2999C48.1 27.9 47.5 27.9 47.1 28.2999L45.4 30L45 23.8L49.2 19.6C51.8 17 52.1 13.2 50 11.1C49.1 10.2 47.9 9.69995 46.5 9.69995C44.7 9.69995 42.9 10.5 41.5 11.9L37.3 16.1L31.3 16L33 14.3C33.4 13.9 33.4 13.3 33 12.9C32.6 12.5 32 12.5 31.6 12.9L28.6 15.9L22.6 15.7L23.5 14.8C23.9 14.4 23.9 13.8 23.5 13.4C23.1 13 22.5 13 22.1 13.4L19.9 15.6L15.7 15.5C15.4 15.5 15.2 15.6 15 15.8L11.9 18.9C11.6 19.2 11.5 19.5 11.6 19.9C11.7 20.2 12 20.5 12.3 20.6L28.6 25L17.2 36.4C17.1 36.5 17 36.6 17 36.7L16.7 37.5H9.00002C8.70002 37.5 8.50002 37.5999 8.30002 37.7999L5.80002 40.2999C5.50002 40.5999 5.40002 40.9 5.50002 41.2999C5.60002 41.6999 5.90002 41.8 6.20002 41.9ZM42.1 46.7L37.8 31L43.1 25.7L43.7 45.0999L42.1 46.7ZM21.6 45.5L21.7 51.7999L20.7 52.7999L19 46.5999L20.6 45.9L21.6 45.5ZM14.5 19.1L16.1 17.5L35.5 18.1L30.2 23.4L14.5 19.1ZM31.2 25.2L38.5 17.9L43 13.4C44 12.4 45.3 11.8 46.6 11.8C47.2 11.8 48 11.9 48.7 12.6C50 13.9 49.6 16.5 47.9 18.2L43.4 22.7L36 30L23.5 42.5L19.9 44L17.4 45L15.2 46L18.7 37.7L31.2 25.2ZM9.40002 39.5L15.7 39.5999L14.6 42.2L8.40002 40.5L9.40002 39.5Z" fill="#FDD84C"/>
</svg>
