<svg width="92" height="92" viewBox="0 0 92 92" fill="none" xmlns="http://www.w3.org/2000/svg">
<path d="M57.04 25.024H62.836C63.388 25.024 63.848 24.564 63.848 24.012C63.848 23.46 63.388 23 62.836 23H57.04C56.488 23 56.028 23.46 56.028 24.012C56.028 24.564 56.488 25.024 57.04 25.024Z" fill="#FDD84C"/>
<path d="M69.276 27.6H57.04C56.488 27.6 56.028 28.06 56.028 28.612C56.028 29.164 56.488 29.624 57.04 29.624H69.276C69.828 29.624 70.288 29.164 70.288 28.612C70.38 28.06 69.828 27.6 69.276 27.6Z" fill="#FDD84C"/>
<path d="M66.056 32.108H57.04C56.488 32.108 56.028 32.568 56.028 33.12C56.028 33.672 56.488 34.132 57.04 34.132H65.964C66.516 34.132 66.976 33.672 66.976 33.12C67.068 32.568 66.608 32.108 66.056 32.108Z" fill="#FDD84C"/>
<path d="M31.372 54.648C31.556 54.832 31.832 54.924 32.108 54.924H32.2C32.476 54.924 32.752 54.74 32.936 54.464L38.272 47.104C38.64 46.644 38.548 46 37.996 45.632C37.536 45.264 36.892 45.356 36.524 45.908L31.832 52.256L29.532 49.956C29.164 49.588 28.428 49.588 28.06 49.956C27.692 50.324 27.692 51.06 28.06 51.428L31.372 54.648Z" fill="#FDD84C"/>
<path d="M44.988 68.908C45.448 68.448 45.632 67.804 45.356 67.068L42.412 59.8C43.148 59.524 43.792 59.064 44.344 58.42C45.356 57.132 45.356 55.476 44.528 54.096C44.068 53.268 44.344 52.256 45.172 51.704C46.552 50.784 47.196 49.22 46.828 47.656C46.46 46 45.172 44.896 43.424 44.62C42.412 44.528 41.768 43.7 41.768 42.688C41.86 41.032 41.032 39.652 39.56 38.916C37.996 38.18 36.248 38.364 34.96 39.56C34.224 40.204 33.028 40.296 32.292 39.652C31.004 38.548 29.164 38.272 27.692 39.008C26.22 39.744 25.392 41.216 25.484 42.78C25.576 43.792 24.84 44.62 23.92 44.712C22.172 44.896 20.884 46 20.516 47.656C20.148 49.22 20.792 50.876 22.172 51.796C23 52.348 23.276 53.268 22.816 54.096C21.988 55.476 22.08 57.132 23.092 58.42C23.828 59.34 24.84 59.892 25.944 59.984L23.368 67.16C23.092 67.896 23.276 68.54 23.736 69C24.012 69.276 24.472 69.736 25.208 69.736C25.392 69.736 25.668 69.736 26.036 69.46L28.336 68.54L29.44 70.748C29.716 71.484 30.452 71.944 31.28 71.944C32.108 71.944 32.844 71.484 33.12 70.748L34.316 67.62L35.512 70.564C35.788 71.3 36.524 71.852 37.352 71.852C38.18 71.852 38.916 71.392 39.192 70.656L40.204 68.448L42.504 69.368C42.872 69.644 43.24 69.644 43.332 69.644C44.252 69.644 44.712 69.184 44.988 68.908ZM24.656 57.132C24.472 56.856 24.012 56.12 24.564 55.108C25.576 53.36 25.024 51.152 23.276 50.048C22.448 49.496 22.356 48.76 22.54 48.116C22.724 47.38 23.276 46.92 24.104 46.828C26.22 46.552 27.692 44.712 27.508 42.688C27.416 41.952 27.876 41.308 28.52 40.94C29.164 40.664 30.084 40.572 30.82 41.308C32.384 42.596 34.776 42.596 36.34 41.216C37.076 40.572 37.996 40.664 38.64 40.94C39.376 41.308 39.744 41.952 39.652 42.688C39.468 44.712 41.032 46.552 43.056 46.828C43.884 46.92 44.528 47.472 44.712 48.208C44.896 48.944 44.62 49.588 43.884 50.048C42.136 51.244 41.584 53.452 42.596 55.292C42.964 55.936 42.964 56.58 42.504 57.224C42.136 57.776 41.308 58.236 40.296 57.96C38.272 57.408 36.064 58.42 35.328 60.26C34.96 61.18 34.04 61.456 33.396 61.456C32.568 61.456 31.924 60.996 31.648 60.26C30.912 58.788 29.44 57.868 27.876 57.868C27.508 57.868 27.14 57.96 26.772 58.052C25.852 58.144 25.024 57.684 24.656 57.132ZM31.372 69.644L30.084 66.976C29.9 66.608 29.624 66.24 28.796 66.24H28.52L25.576 67.436L28.244 59.8C28.98 59.892 29.624 60.26 29.9 60.904C30.36 62.192 31.464 63.02 32.752 63.296L33.304 64.86L31.372 69.644ZM40.204 66.148H39.928C39.192 66.148 38.824 66.608 38.732 66.976L37.536 69.552L35.328 64.308L34.96 63.204C36.064 62.836 36.984 62.008 37.444 60.904C37.72 60.076 38.916 59.616 39.836 59.892C39.928 59.892 40.112 59.984 40.204 59.984L43.148 67.344L40.204 66.148Z" fill="#FDD84C"/>
<path d="M17.664 42.044C18.216 42.044 18.676 41.584 18.676 41.032V36.524H23.184C23.736 36.524 24.196 36.064 24.196 35.512C24.196 34.96 23.736 34.5 23.184 34.5H17.572C17.02 34.5 16.56 34.96 16.56 35.512V41.124C16.56 41.492 17.112 42.044 17.664 42.044Z" fill="#FDD84C"/>
<path d="M23.276 73.324H18.768V68.724C18.768 68.172 18.308 67.712 17.756 67.712C17.204 67.712 16.744 68.172 16.744 68.724V74.428C16.744 74.98 17.204 75.44 17.756 75.44H23.368C23.92 75.44 24.38 74.98 24.38 74.428C24.288 73.784 23.828 73.324 23.276 73.324Z" fill="#FDD84C"/>
<path d="M50.232 34.316H44.528C43.976 34.316 43.516 34.776 43.516 35.328C43.516 35.88 43.976 36.34 44.528 36.34H49.128V40.848C49.128 41.4 49.588 41.86 50.14 41.86C50.692 41.86 51.152 41.4 51.152 40.848V35.236C51.244 34.776 50.784 34.316 50.232 34.316Z" fill="#FDD84C"/>
<path d="M50.232 67.62C49.68 67.62 49.22 68.08 49.22 68.632V73.232H44.62C44.068 73.232 43.608 73.692 43.608 74.244C43.608 74.796 44.068 75.256 44.62 75.256H50.324C50.876 75.256 51.336 74.796 51.336 74.244V68.54C51.244 68.08 50.784 67.62 50.232 67.62Z" fill="#FDD84C"/>
</svg>
