<svg width="51" height="51" viewBox="0 0 51 51" fill="none" xmlns="http://www.w3.org/2000/svg">
<path d="M45.4219 24.7031C45.3172 24.7031 45.2136 24.7237 45.1169 24.7637C45.0202 24.8038 44.9323 24.8624 44.8583 24.9364C44.7843 25.0105 44.7256 25.0983 44.6856 25.195C44.6456 25.2917 44.625 25.3953 44.625 25.5C44.6252 29.8375 43.151 34.0464 40.4443 37.4358C37.7376 40.8252 33.9591 43.1939 29.729 44.1532C25.4988 45.1125 21.0682 44.6054 17.1642 42.7151C13.2602 40.8249 10.1147 37.6637 8.24377 33.7504C6.37287 29.837 5.88774 25.404 6.86799 21.1786C7.84824 16.9533 10.2356 13.1866 13.6384 10.4967C17.0412 7.80686 21.2573 6.35352 25.5948 6.37523C29.9323 6.39693 34.1336 7.89237 37.5093 10.6162H34.1489C33.9376 10.6162 33.7349 10.7001 33.5854 10.8496C33.436 10.999 33.352 11.2017 33.352 11.413C33.352 11.6244 33.436 11.8271 33.5854 11.9765C33.7349 12.126 33.9376 12.2099 34.1489 12.2099H39.587C39.798 12.2091 40.0003 12.1249 40.1495 11.9756C40.2988 11.8264 40.383 11.6241 40.3838 11.413V5.975C40.3838 5.76365 40.2999 5.56096 40.1504 5.41152C40.001 5.26208 39.7983 5.17812 39.587 5.17812C39.3756 5.17812 39.1729 5.26208 39.0235 5.41152C38.874 5.56096 38.7901 5.76365 38.7901 5.975V9.6084C34.6974 6.18553 29.4421 4.47352 24.1186 4.82896C18.7951 5.1844 13.814 7.57988 10.2127 11.5165C6.61147 15.453 4.66773 20.6272 4.78638 25.9612C4.90503 31.2952 7.07691 36.3778 10.8496 40.1503C13.7472 43.0479 17.4389 45.0212 21.458 45.8206C25.477 46.62 29.6429 46.2097 33.4287 44.6416C37.2146 43.0734 40.4504 40.4179 42.727 37.0107C45.0036 33.6035 46.2188 29.5978 46.2188 25.5C46.2188 25.3953 46.1982 25.2917 46.1582 25.195C46.1181 25.0983 46.0594 25.0105 45.9854 24.9364C45.9114 24.8624 45.8236 24.8038 45.7269 24.7637C45.6302 24.7237 45.5265 24.7031 45.4219 24.7031Z" fill="#FDD84C"/>
<path d="M29.9018 19.781L25.8412 30.9372C25.8051 31.0356 25.7888 31.1401 25.7932 31.2448C25.7976 31.3495 25.8226 31.4523 25.8667 31.5474C25.9109 31.6424 25.9734 31.7277 26.0506 31.7986C26.1278 31.8694 26.2183 31.9243 26.3167 31.9601C26.4152 31.996 26.5198 32.012 26.6245 32.0074C26.7292 32.0027 26.8319 31.9775 26.9268 31.933C27.0217 31.8886 27.1069 31.8259 27.1776 31.7485C27.2482 31.6711 27.3029 31.5805 27.3384 31.482L31.3991 20.3257C31.4713 20.1272 31.4617 19.9081 31.3724 19.7166C31.2831 19.5251 31.1214 19.377 30.9228 19.3047C30.7243 19.2325 30.5052 19.2421 30.3137 19.3314C30.1222 19.4207 29.9741 19.5824 29.9018 19.781Z" fill="#FDD84C"/>
<path d="M18.7748 24.0588C18.7759 23.6722 18.7002 23.2892 18.5523 22.932C18.4044 22.5748 18.1871 22.2505 17.913 21.9779C16.8009 20.865 14.8632 20.865 13.7512 21.9779C13.477 22.2504 13.2596 22.5747 13.1116 22.9319C12.9635 23.2891 12.8879 23.6721 12.8889 24.0588C12.8889 24.2701 12.9729 24.4728 13.1223 24.6222C13.2718 24.7717 13.4745 24.8556 13.6858 24.8556C13.8971 24.8556 14.0998 24.7717 14.2493 24.6222C14.3987 24.4728 14.4827 24.2701 14.4827 24.0588C14.4823 23.8815 14.517 23.7059 14.5848 23.5422C14.6527 23.3784 14.7523 23.2297 14.878 23.1047C15.1349 22.859 15.4766 22.7218 15.8321 22.7218C16.1875 22.7218 16.5293 22.859 16.7861 23.1047C17.039 23.3577 17.1811 23.7007 17.1811 24.0584C17.1811 24.4161 17.039 24.7591 16.7861 25.0121L13.1224 28.6758C13.0109 28.7872 12.935 28.9292 12.9043 29.0838C12.8735 29.2384 12.8893 29.3986 12.9496 29.5442C13.0099 29.6898 13.112 29.8143 13.2431 29.9018C13.3741 29.9894 13.5282 30.0361 13.6858 30.0361H17.978C18.1893 30.0361 18.392 29.9522 18.5414 29.8027C18.6909 29.6533 18.7748 29.4506 18.7748 29.2392C18.7748 29.0279 18.6909 28.8252 18.5414 28.6758C18.392 28.5263 18.1893 28.4424 17.978 28.4424H15.6095L17.913 26.1389C18.187 25.8664 18.4043 25.5422 18.5523 25.1852C18.7002 24.8281 18.7759 24.4453 18.7748 24.0588Z" fill="#FDD84C"/>
<path d="M23.3176 30.0361C23.4223 30.0361 23.5259 30.0156 23.6226 29.9755C23.7193 29.9355 23.8071 29.8768 23.8811 29.8028C23.9551 29.7288 24.0138 29.6409 24.0539 29.5442C24.0939 29.4475 24.1145 29.3439 24.1145 29.2392V28.0509H24.5258C24.7371 28.0509 24.9398 27.9669 25.0892 27.8175C25.2387 27.6681 25.3226 27.4654 25.3226 27.254C25.3226 27.0427 25.2387 26.84 25.0892 26.6906C24.9398 26.5411 24.7371 26.4572 24.5258 26.4572H24.1145V21.9125C24.1144 21.741 24.059 21.574 23.9565 21.4365C23.854 21.299 23.7099 21.1982 23.5456 21.149C23.3812 21.0999 23.2054 21.1051 23.0443 21.1639C22.8832 21.2226 22.7453 21.3318 22.6511 21.4751L19.1484 26.8167C19.0696 26.9369 19.0247 27.0762 19.0185 27.2198C19.0124 27.3635 19.0452 27.5061 19.1136 27.6326C19.1819 27.7591 19.2831 27.8648 19.4066 27.9384C19.5301 28.012 19.6712 28.0509 19.8149 28.0509H22.5207V29.2392C22.5207 29.3439 22.5413 29.4475 22.5813 29.5442C22.6214 29.6409 22.6801 29.7288 22.7541 29.8028C22.8281 29.8768 22.9159 29.9355 23.0126 29.9755C23.1093 30.0155 23.213 30.0361 23.3176 30.0361ZM21.2904 26.4572L22.5207 24.5809V26.4572H21.2904Z" fill="#FDD84C"/>
<path d="M34.1614 29.2392C34.1614 29.4506 34.2453 29.6532 34.3948 29.8027C34.5442 29.9521 34.7469 30.0361 34.9582 30.0361C35.1696 30.0361 35.3723 29.9521 35.5217 29.8027C35.6712 29.6532 35.7551 29.4506 35.7551 29.2392V27.5987C35.7526 26.6469 35.9389 25.7041 36.3032 24.8248C36.6674 23.9454 37.2024 23.147 37.8773 22.4758C37.9887 22.3644 38.0646 22.2224 38.0954 22.0678C38.1261 21.9133 38.1104 21.753 38.0501 21.6074C37.9897 21.4618 37.8876 21.3374 37.7566 21.2498C37.6255 21.1623 37.4715 21.1155 37.3139 21.1155H32.603C32.3917 21.1155 32.189 21.1995 32.0396 21.3489C31.8901 21.4984 31.8062 21.7011 31.8062 21.9124C31.8062 22.1238 31.8901 22.3264 32.0396 22.4759C32.189 22.6253 32.3917 22.7093 32.603 22.7093H35.6337C34.6692 24.1571 34.1567 25.859 34.1614 27.5987V29.2392Z" fill="#FDD84C"/>
</svg>
