<svg width="53" height="53" viewBox="0 0 53 53" fill="none" xmlns="http://www.w3.org/2000/svg">
<path d="M33.9731 20.193L17.9671 32.913C17.6491 33.178 17.5431 33.708 17.8611 34.026C18.0201 34.238 18.2321 34.344 18.4971 34.344C18.6561 34.344 18.8681 34.291 18.9741 34.185L34.9801 21.465C35.2981 21.2 35.4041 20.67 35.0861 20.352C34.8211 19.981 34.3441 19.928 33.9731 20.193Z" fill="#FDD84C"/>
<path d="M22.2601 25.864C22.4721 25.864 22.6841 25.864 22.8961 25.811C25.0691 25.493 26.6061 23.426 26.2351 21.2C26.0761 20.14 25.4931 19.186 24.6451 18.55C23.7971 17.914 22.7371 17.649 21.6771 17.808C20.6171 17.967 19.6631 18.55 19.0271 19.398C18.3911 20.246 18.1261 21.306 18.2851 22.366C18.6031 24.433 20.3521 25.864 22.2601 25.864ZM21.8891 19.451C21.9951 19.451 22.1541 19.398 22.2601 19.398C23.4261 19.398 24.4861 20.246 24.6451 21.465C24.8571 22.79 23.9561 24.009 22.6311 24.221C21.3061 24.433 20.0871 23.532 19.8751 22.207C19.6631 20.882 20.6171 19.663 21.8891 19.451Z" fill="#FDD84C"/>
<path d="M30.74 28.514C28.514 28.514 26.712 30.316 26.712 32.542C26.712 34.768 28.514 36.57 30.74 36.57C32.966 36.57 34.768 34.768 34.768 32.542C34.715 30.316 32.913 28.514 30.74 28.514ZM30.74 34.927C29.415 34.927 28.302 33.814 28.302 32.489C28.302 31.164 29.415 30.051 30.74 30.051C32.065 30.051 33.178 31.164 33.178 32.489C33.125 33.867 32.065 34.927 30.74 34.927Z" fill="#FDD84C"/>
<path d="M50.562 26.659C50.562 26.606 50.615 26.5 50.615 26.447C50.615 24.168 48.23 23.002 46.163 21.995C44.679 21.253 43.089 20.458 42.665 19.504C42.241 18.497 42.824 16.854 43.407 15.317C44.202 13.144 44.997 10.918 43.513 9.43403C42.029 7.95003 39.909 8.48003 37.789 8.95703C36.305 9.27503 34.768 9.64603 33.761 9.22203C32.754 8.79803 31.906 7.47303 31.111 6.20103C29.945 4.39903 28.673 2.33203 26.447 2.33203C24.221 2.33203 22.949 4.39903 21.836 6.25403C21.041 7.57903 20.246 8.90403 19.239 9.32803C18.232 9.75203 16.642 9.38103 15.158 9.01003C13.038 8.48003 10.865 7.95003 9.43403 9.38103C7.95003 10.865 8.69203 13.091 9.38103 15.264C9.91103 16.854 10.388 18.444 9.96403 19.504C9.54003 20.511 8.05603 21.253 6.62503 21.995C4.61103 23.055 2.33203 24.221 2.33203 26.447C2.33203 26.5 2.33203 26.606 2.38503 26.659C2.38503 26.712 2.33203 26.818 2.33203 26.871C2.33203 29.097 4.61103 30.316 6.62503 31.323C8.05603 32.065 9.54003 32.807 9.96403 33.814C10.388 34.821 9.85803 36.464 9.38103 38.054C8.69203 40.227 7.95003 42.453 9.43403 43.937C10.918 45.421 13.091 44.838 15.158 44.308C16.642 43.937 18.232 43.566 19.239 43.99C20.246 44.414 21.041 45.739 21.836 47.064C22.949 48.919 24.221 50.986 26.447 50.986C28.673 50.986 29.998 48.919 31.111 47.117C31.906 45.845 32.754 44.52 33.761 44.096C34.821 43.672 36.305 43.99 37.789 44.361C39.856 44.838 42.029 45.368 43.513 43.884C44.997 42.4 44.202 40.174 43.407 38.001C42.824 36.411 42.241 34.821 42.665 33.814C43.089 32.807 44.626 32.065 46.163 31.323C48.23 30.263 50.615 29.097 50.615 26.871C50.615 26.765 50.562 26.712 50.562 26.659ZM45.421 29.892C43.672 30.793 41.817 31.694 41.181 33.231C40.492 34.821 41.234 36.729 41.87 38.584C42.506 40.333 43.142 42.029 42.347 42.771C41.499 43.619 39.856 43.248 38.107 42.824C36.358 42.4 34.609 42.029 33.072 42.665C31.588 43.301 30.634 44.785 29.733 46.269C28.726 47.859 27.772 49.396 26.394 49.396C25.069 49.396 24.115 47.859 23.108 46.216C22.207 44.679 21.253 43.142 19.769 42.506C18.232 41.87 16.43 42.294 14.681 42.771C12.932 43.195 11.289 43.619 10.441 42.824C9.64603 42.029 10.176 40.333 10.759 38.584C11.342 36.729 11.978 34.821 11.289 33.284C10.653 31.747 8.90403 30.846 7.20803 29.998C5.45903 29.097 3.81603 28.249 3.81603 26.924C3.81603 26.871 3.81603 26.765 3.76303 26.712C3.76303 26.659 3.81603 26.553 3.81603 26.5C3.81603 25.228 5.45903 24.38 7.20803 23.426C8.90403 22.578 10.653 21.677 11.289 20.14C11.925 18.55 11.342 16.642 10.759 14.84C10.176 13.038 9.64603 11.342 10.441 10.6C11.289 9.75203 12.932 10.176 14.681 10.653C16.43 11.077 18.232 11.554 19.769 10.918C21.253 10.282 22.207 8.74503 23.108 7.20803C24.115 5.56503 25.016 4.02803 26.394 4.02803C27.772 4.02803 28.726 5.56503 29.733 7.15503C30.687 8.63903 31.641 10.123 33.072 10.759C34.609 11.395 36.358 10.971 38.107 10.6C39.856 10.176 41.499 9.80503 42.347 10.653C43.142 11.395 42.506 13.091 41.87 14.84C41.181 16.695 40.492 18.603 41.181 20.193C41.817 21.73 43.672 22.631 45.421 23.532C47.276 24.433 48.972 25.334 48.972 26.606C48.972 26.659 48.972 26.765 49.025 26.818C49.025 26.871 48.972 26.977 48.972 27.03C49.025 28.09 47.276 28.991 45.421 29.892Z" fill="#FDD84C"/>
</svg>
