<svg width="48" height="48" viewBox="0 0 48 48" fill="none" xmlns="http://www.w3.org/2000/svg">
<path fill-rule="evenodd" clip-rule="evenodd" d="M43 43H5C2.791 43 1 41.209 1 39V9C1 6.791 2.791 5 5 5H43C45.209 5 47 6.791 47 9V39C47 41.209 45.209 43 43 43ZM45 9C45 7.896 44.104 7 43 7H5C3.896 7 3 7.896 3 9V15H45V9ZM45 17H3V39C3 40.104 3.896 41 5 41H43C44.104 41 45 40.104 45 39V17ZM41 31H39C38.448 31 38 30.553 38 30V28C38 27.448 38.448 27 39 27H41C41.553 27 42 27.448 42 28V30C42 30.553 41.553 31 41 31ZM41 24H39C38.448 24 38 23.553 38 23V21C38 20.447 38.448 20 39 20H41C41.553 20 42 20.447 42 21V23C42 23.553 41.553 24 41 24ZM33 31H31C30.448 31 30 30.553 30 30V28C30 27.448 30.448 27 31 27H33C33.553 27 34 27.448 34 28V30C34 30.553 33.553 31 33 31ZM33 24H31C30.448 24 30 23.553 30 23V21C30 20.447 30.448 20 31 20H33C33.553 20 34 20.447 34 21V23C34 23.553 33.553 24 33 24ZM25 31H23C22.447 31 22 30.553 22 30V28C22 27.448 22.447 27 23 27H25C25.553 27 26 27.448 26 28V30C26 30.553 25.553 31 25 31ZM25 24H23C22.447 24 22 23.553 22 23V21C22 20.447 22.447 20 23 20H25C25.553 20 26 20.447 26 21V23C26 23.553 25.553 24 25 24ZM17 38H15C14.447 38 14 37.553 14 37V35C14 34.447 14.447 34 15 34H17C17.553 34 18 34.447 18 35V37C18 37.553 17.553 38 17 38ZM17 31H15C14.447 31 14 30.553 14 30V28C14 27.448 14.447 27 15 27H17C17.553 27 18 27.448 18 28V30C18 30.553 17.553 31 17 31ZM17 24H15C14.447 24 14 23.553 14 23V21C14 20.447 14.447 20 15 20H17C17.553 20 18 20.447 18 21V23C18 23.553 17.553 24 17 24ZM9 38H7C6.447 38 6 37.553 6 37V35C6 34.447 6.447 34 7 34H9C9.553 34 10 34.447 10 35V37C10 37.553 9.553 38 9 38ZM9 31H7C6.447 31 6 30.553 6 30V28C6 27.448 6.447 27 7 27H9C9.553 27 10 27.448 10 28V30C10 30.553 9.553 31 9 31ZM23 34H25C25.553 34 26 34.447 26 35V37C26 37.553 25.553 38 25 38H23C22.447 38 22 37.553 22 37V35C22 34.447 22.447 34 23 34Z" fill="#FDD84C"/>
</svg>
